# Blender v3.5.1 OBJ File: 'NormalWall.blend'
# www.blender.org
mtllib DoorWall.mtl
o Cube_Cube.002
v 0.483110 -0.080773 0.992524
v 0.483110 0.836624 0.992524
v 0.483110 -0.080773 0.393390
v 0.483110 0.836624 0.393390
v 0.616505 -0.080211 1.004854
v 0.616505 0.818237 1.004854
v 0.616505 -0.080211 0.391257
v 0.616505 0.818237 0.391257
v 0.483110 -0.086649 -2.354522
v 0.483110 -0.086649 1.313946
v 0.483110 1.279243 1.313946
v 0.483110 1.279243 -2.354522
v 0.616505 1.279243 -2.354522
v 0.616505 -0.086649 -2.354522
v 0.616505 -0.086649 1.313946
v 0.616505 1.279243 1.313946
v 0.616505 1.279243 -2.354522
v 0.616505 -0.086649 -2.354522
v 0.616505 -0.086649 1.313946
v 0.616505 1.279243 1.313946
v 0.616505 1.266495 -2.341644
v 0.616505 -0.073901 -2.341644
v 0.616505 -0.073901 1.301068
v 0.616505 1.266495 1.301068
vt 0.375000 0.250000
vt 0.625000 0.250000
vt 0.625000 0.500000
vt 0.375000 0.500000
vt 0.375000 0.750000
vt 0.625000 0.750000
vt 0.625000 1.000000
vt 0.375000 1.000000
vt 0.125000 0.500000
vt 0.125000 0.750000
vt 0.875000 0.500000
vt 0.875000 0.750000
vt 0.442146 0.025255
vt 0.442146 0.224745
vt 0.375000 0.000000
vt 0.557854 0.025255
vt 0.625000 0.000000
vt 0.557854 0.224745
vt 0.000000 0.000000
vt 0.000000 0.000000
vt 0.000000 0.000000
vt 0.000000 0.000000
vt 0.375000 0.500000
vt 0.375000 0.750000
vt 0.625000 0.750000
vt 0.625000 0.500000
vt 0.000000 0.000000
vt 0.000000 0.000000
vt 0.000000 0.000000
vt 0.000000 0.000000
vt 0.622667 0.500878
vt 0.377333 0.500878
vt 0.377333 0.749122
vt 0.622667 0.749122
vt 0.559737 0.524547
vt 0.440263 0.524547
vt 0.440263 0.725453
vt 0.559737 0.725453
vn 0.0000 0.0000 -1.0000
vn 0.0000 0.0000 1.0000
vn 0.0000 -1.0000 0.0000
vn 0.0000 1.0000 0.0000
vn -1.0000 0.0000 0.0000
vn 1.0000 0.0000 0.0000
usemtl None
s off
f 9/1/1 12/2/1 13/3/1 14/4/1
f 15/5/2 16/6/2 11/7/2 10/8/2
f 9/9/3 14/4/3 15/5/3 10/10/3
f 13/3/4 12/11/4 11/12/4 16/6/4
f 1/13/5 3/14/5 9/1/5 10/15/5
f 2/16/5 1/13/5 10/15/5 11/17/5
f 4/18/5 2/16/5 11/17/5 12/2/5
f 3/14/5 4/18/5 12/2/5 9/1/5
f 17/19/2 18/20/2 14/21/2 13/22/2
f 18/23/2 19/24/2 15/5/2 14/4/2
f 20/25/2 17/26/2 13/3/2 16/6/2
f 19/27/2 20/28/2 16/29/2 15/30/2
f 21/31/6 22/32/6 18/23/6 17/26/6
f 22/32/6 23/33/6 19/24/6 18/23/6
f 24/34/6 21/31/6 17/26/6 20/25/6
f 23/33/6 24/34/6 20/25/6 19/24/6
f 8/35/6 7/36/6 22/32/6 21/31/6
f 7/36/5 5/37/5 23/33/5 22/32/5
f 6/38/6 8/35/6 21/31/6 24/34/6
f 5/37/6 6/38/6 24/34/6 23/33/6
